# xmcd
#
# Track frame offsets:
#	150
#	11663
#	75780
#	83574
#	127995
#	167820
#	182111
#	194946
#	208447
#	251583
#
# Disc length: 3435 seconds
#
# Revision: 1
# Processed by: cddbd v1.4PL0 Copyright (c) Steve Scherf et al.
# Submitted via: audiograbber 1.81.02
#
DISCID=830d690a
DTITLE=Youp van 't Hek - De wereld draait door CD 2
DYEAR=1900
DGENRE=Cabaret
TTITLE0=Morgen ben je dood
TTITLE1=Willem
TTITLE2=De liefde (lied)
TTITLE3=Zuster Isabella
TTITLE4=Mislukt
TTITLE5=Zeuren
TTITLE6=Stoppen met zeuren
TTITLE7=Vragen van Willem
TTITLE8=Begrafenis
TTITLE9=Verzonnen
EXTD=
EXTT0=
EXTT1=
EXTT2=
EXTT3=
EXTT4=
EXTT5=
EXTT6=
EXTT7=
EXTT8=
EXTT9=
PLAYORDER=
